<svg xmlns="http://www.w3.org/2000/svg" viewBox="0 0 512 512" width="512" height="512">
  <rect width="512" height="512" fill="none"/>
  <g fill="#0066cc">
    <path d="M360 192h-40c-6.9 0-13.4 1.5-19.5 4.1L240 144H192V96h32c8.8 0 16-7.2 16-16V48c0-8.8-7.2-16-16-16h-96c-8.8 0-16 7.2-16 16v32c0 8.8 7.2 16 16 16h32v48h-48l-60.5 52.1c-6-2.6-12.6-4.1-19.5-4.1H72c-26.5 0-48 21.5-48 48v96c0 26.5 21.5 48 48 48h40c19.6 0 36.4-11.8 43.8-28.6L184 320l28.2 16.1c7.4 16.8 24.2 28.6 43.8 28.6h40c26.5 0 48-21.5 48-48v-48h16c26.5 0 48-21.5 48-48v-32C408 213.5 386.5 192 360 192zM128 80V64h64v16h-64zm255.2 144H360c-8.8 0-16 7.2-16 16v32c0 8.8 7.2 16 16 16h16v-25.6l7.2 2.6zm-111.4 48h-29.7c-1.6 0-3-1.4-3-3 0-1.2.7-2.3 1.8-2.8l29.7-14.9v20.7zm-111.4 0H88.8l7.2-2.6V244h23v25.6zM112 352H72c-8.8 0-16-7.2-16-16v-96c0-8.8 7.2-16 16-16h40c8.8 0 16 7.2 16 16v96c0 8.8-7.2 16-16 16zm184 0h-40c-8.8 0-16-7.2-16-16v-96c0-8.8 7.2-16 16-16h40c8.8 0 16 7.2 16 16v96c0 8.8-7.2 16-16 16z"/>
  </g>
</svg> 