<svg xmlns="http://www.w3.org/2000/svg" viewBox="0 0 512 512" width="512" height="512">
  <rect width="512" height="512" fill="none"/>
  <g fill="#0066cc">
    <path d="M176 32c-44.2 0-80 35.8-80 80v32h160v-32c0-44.2-35.8-80-80-80zm-54.6 112c.1-30.4 21.3-55.8 49.7-62.6-42.6 6-64.6 22.8-49.7 62.6zm109.2 0c14.9-39.8-7.1-56.6-49.7-62.6 28.4 6.8 49.6 32.2 49.7 62.6z" fill="#ffffff"/>
    <path d="M336 32c-44.2 0-80 35.8-80 80v32h160v-32c0-44.2-35.8-80-80-80zm-54.6 112c.1-30.4 21.3-55.8 49.7-62.6-42.6 6-64.6 22.8-49.7 62.6zm109.2 0c14.9-39.8-7.1-56.6-49.7-62.6 28.4 6.8 49.6 32.2 49.7 62.6z" fill="#ffffff"/>
    <path d="M96 160h320v32h-320zm8 48h304c8.8 0 16 7.2 16 16v224c0 8.8-7.2 16-16 16h-304c-8.8 0-16-7.2-16-16v-224c0-8.8 7.2-16 16-16z"/>
    <path d="M256 240c-53 0-96 43-96 96s43 96 96 96 96-43 96-96-43-96-96-96zm0 160c-35.3 0-64-28.7-64-64s28.7-64 64-64 64 28.7 64 64-28.7 64-64 64z"/>
    <path d="M256 304c-17.7 0-32 14.3-32 32s14.3 32 32 32 32-14.3 32-32-14.3-32-32-32z"/>
  </g>
</svg> 