<svg xmlns="http://www.w3.org/2000/svg" viewBox="0 0 512 512" width="512" height="512">
  <rect width="512" height="512" fill="none"/>
  <g fill="#0066cc">
    <path d="M256 32l-192 96v240c0 8.84 7.16 16 16 16h352c8.84 0 16-7.16 16-16V128l-192-96z"/>
    <path d="M256 64l160 80v80l-160-80-160 80v-80l160-80z" fill="#ffffff"/>
    <path d="M256 160l-128 64v80c0 35.35 57.31 64 128 64s128-28.65 128-64v-80l-128-64z" fill="#ffffff"/>
    <path d="M127.99 415.99c-2.01 0-4.03-.5-5.9-1.52-5.04-2.81-7.23-8.86-5.44-14.3L131.8 348c.9-2.7 2.7-5.13 5.44-6.42l25.27-11.96c5.07-2.41 10.84-.8 14.17 3.45l25.32 32.2 34.23-17.31c7.47-3.77 16.06-3.77 23.54 0L294 365.28l25.32-32.2c3.32-4.25 9.1-5.86 14.17-3.45l25.27 11.96a13.39 13.39 0 0 1 5.44 6.42l15.15 52.17c1.79 5.44-.4 11.49-5.44 14.3-5.04 2.82-11.32 1.32-14.89-3.26l-17.8-23.18-17.8 23.18c-3.57 4.58-9.85 6.08-14.89 3.26-5.04-2.81-7.23-8.86-5.44-14.3l5.85-20.12-6.93-3.28-20.54 26.12c-3.57 4.58-9.85 6.08-14.89 3.26-5.04-2.82-7.23-8.86-5.44-14.3l3.5-12.05-16.08 8.13c-3.57 1.8-7.94 1.8-11.51 0l-16.08-8.13 3.5 12.05c1.79 5.44-.4 11.49-5.44 14.3-5.04 2.82-11.32 1.32-14.89-3.26l-20.54-26.12-6.93 3.28 5.85 20.12c1.79 5.44-.4 11.49-5.44 14.3-1.86 1.03-3.88 1.53-5.9 1.53z"/>
  </g>
</svg> 