<svg xmlns="http://www.w3.org/2000/svg" viewBox="0 0 512 512" width="512" height="512">
  <rect width="512" height="512" fill="none"/>
  <g fill="#0066cc">
    <path d="M256 64C150 64 64 150 64 256s86 192 192 192 192-86 192-192S362 64 256 64zm0 352c-88 0-160-72-160-160S168 96 256 96s160 72 160 160-72 160-160 160z"/>
    <path d="M256 128c-70.7 0-128 57.3-128 128s57.3 128 128 128 128-57.3 128-128-57.3-128-128-128zm0 224c-52.9 0-96-43.1-96-96s43.1-96 96-96 96 43.1 96 96-43.1 96-96 96z"/>
    <path d="M256 192c-35.3 0-64 28.7-64 64s28.7 64 64 64 64-28.7 64-64-28.7-64-64-64zm0 96c-17.6 0-32-14.4-32-32s14.4-32 32-32 32 14.4 32 32-14.4 32-32 32z"/>
    <path d="M368 112h32v32h-32zm0-32h32v32h-32zm32 64h32v32h-32zm-32 0h32v32h-32zM80 368h32v32H80zm0-32h32v32H80zm32 64h32v32h-32zm-32 0h32v32h-32z"/>
  </g>
</svg> 