<svg width="800" height="400" xmlns="http://www.w3.org/2000/svg">
  <rect width="800" height="400" fill="#f0f0f0"/>
  
  <!-- Fundo -->
  <rect x="50" y="50" width="700" height="300" rx="10" fill="#ecf0f1"/>
  
  <!-- Rolos de filamento -->
  <circle cx="150" cy="150" r="60" fill="#3498db"/>
  <circle cx="150" cy="150" r="20" fill="#f0f0f0"/>
  <circle cx="250" cy="150" r="60" fill="#e74c3c"/>
  <circle cx="250" cy="150" r="20" fill="#f0f0f0"/>
  <circle cx="350" cy="150" r="60" fill="#2ecc71"/>
  <circle cx="350" cy="150" r="20" fill="#f0f0f0"/>
  
  <!-- Frascos de resina -->
  <rect x="450" y="100" width="50" height="100" rx="5" fill="#9b59b6"/>
  <rect x="520" y="100" width="50" height="100" rx="5" fill="#3498db"/>
  <rect x="590" y="100" width="50" height="100" rx="5" fill="#f1c40f"/>
  
  <!-- Objetos impressos -->
  <rect x="150" y="250" width="100" height="50" rx="10" fill="#3498db"/>
  <circle cx="350" cy="275" r="30" fill="#e74c3c"/>
  <polygon points="500,250 550,250 525,300" fill="#2ecc71"/>
  <rect x="590" y="250" width="50" height="50" rx="5" fill="#f1c40f"/>
  
  <text x="400" y="350" font-family="Arial" font-size="24" text-anchor="middle" fill="#333">Materiais para Impressão 3D</text>
</svg> 