<svg width="800" height="400" xmlns="http://www.w3.org/2000/svg">
  <rect width="800" height="400" fill="#f0f0f0"/>
  
  <!-- Fundo -->
  <rect x="50" y="50" width="700" height="300" rx="10" fill="#ecf0f1"/>
  
  <!-- Frascos de resina -->
  <rect x="100" y="120" width="100" height="180" rx="10" fill="#9b59b6"/>
  <rect x="110" y="100" width="80" height="20" rx="5" fill="#8e44ad"/>
  <rect x="145" y="80" width="10" height="20" fill="#8e44ad"/>
  
  <rect x="250" y="120" width="100" height="180" rx="10" fill="#3498db"/>
  <rect x="260" y="100" width="80" height="20" rx="5" fill="#2980b9"/>
  <rect x="295" y="80" width="10" height="20" fill="#2980b9"/>
  
  <rect x="400" y="120" width="100" height="180" rx="10" fill="#e74c3c"/>
  <rect x="410" y="100" width="80" height="20" rx="5" fill="#c0392b"/>
  <rect x="445" y="80" width="10" height="20" fill="#c0392b"/>
  
  <rect x="550" y="120" width="100" height="180" rx="10" fill="#f1c40f"/>
  <rect x="560" y="100" width="80" height="20" rx="5" fill="#f39c12"/>
  <rect x="595" y="80" width="10" height="20" fill="#f39c12"/>
  
  <!-- Gotas de resina -->
  <circle cx="150" cy="350" r="10" fill="#9b59b6"/>
  <path d="M 150 80 C 145 100, 155 100, 150 120" stroke="#9b59b6" stroke-width="5" fill="none"/>
  
  <circle cx="300" cy="350" r="10" fill="#3498db"/>
  <path d="M 300 80 C 295 100, 305 100, 300 120" stroke="#3498db" stroke-width="5" fill="none"/>
  
  <circle cx="450" cy="350" r="10" fill="#e74c3c"/>
  <path d="M 450 80 C 445 100, 455 100, 450 120" stroke="#e74c3c" stroke-width="5" fill="none"/>
  
  <circle cx="600" cy="350" r="10" fill="#f1c40f"/>
  <path d="M 600 80 C 595 100, 605 100, 600 120" stroke="#f1c40f" stroke-width="5" fill="none"/>
  
  <text x="400" y="70" font-family="Arial" font-size="24" text-anchor="middle" fill="#333">Resinas para Impressão 3D</text>
</svg> 