<svg width="400" height="400" xmlns="http://www.w3.org/2000/svg">
  <rect width="400" height="400" fill="#f0f0f0"/>
  <rect x="150" y="300" width="100" height="20" fill="#34495e"/>
  <rect x="100" y="200" width="60" height="100" fill="#3498db"/>
  <rect x="170" y="150" width="60" height="150" fill="#3498db"/>
  <rect x="240" y="220" width="60" height="80" fill="#3498db"/>
  <polygon points="130,200 130,180 170,150 170,200" fill="#2980b9"/>
  <polygon points="170,150 170,130 200,110 230,130 230,150" fill="#2980b9"/>
  <polygon points="230,150 230,180 270,200 270,220" fill="#2980b9"/>
  <rect x="120" y="230" width="20" height="20" fill="#ecf0f1"/>
  <rect x="190" y="180" width="20" height="20" fill="#ecf0f1"/>
  <rect x="190" y="230" width="20" height="20" fill="#ecf0f1"/>
  <rect x="250" y="240" width="20" height="20" fill="#ecf0f1"/>
  <text x="200" y="350" font-family="Arial" font-size="18" text-anchor="middle" fill="#333">Miniatura Arquitetônica</text>
</svg> 