<svg width="400" height="400" xmlns="http://www.w3.org/2000/svg">
  <rect width="400" height="400" fill="#f0f0f0"/>
  
  <!-- Contorno do cérebro -->
  <path d="M 200 100 C 150 80, 120 120, 120 150 C 120 180, 140 200, 160 210 C 130 220, 120 260, 140 280 C 160 300, 190 290, 200 280 C 210 290, 240 300, 260 280 C 280 260, 270 220, 240 210 C 260 200, 280 180, 280 150 C 280 120, 250 80, 200 100" fill="#e74c3c" stroke="#c0392b" stroke-width="2"/>
  
  <!-- Detalhes do cérebro -->
  <path d="M 200 100 C 190 150, 190 180, 200 220" fill="none" stroke="#c0392b" stroke-width="2"/>
  <path d="M 120 150 C 150 160, 180 160, 200 150" fill="none" stroke="#c0392b" stroke-width="2"/>
  <path d="M 200 150 C 220 160, 250 160, 280 150" fill="none" stroke="#c0392b" stroke-width="2"/>
  <path d="M 140 200 C 160 210, 180 210, 200 200" fill="none" stroke="#c0392b" stroke-width="2"/>
  <path d="M 200 200 C 220 210, 240 210, 260 200" fill="none" stroke="#c0392b" stroke-width="2"/>
  
  <!-- Base -->
  <rect x="150" y="300" width="100" height="20" rx="5" fill="#34495e"/>
  <rect x="175" y="280" width="50" height="20" fill="#7f8c8d"/>
  
  <!-- Texto -->
  <text x="200" y="350" font-family="Arial" font-size="18" text-anchor="middle" fill="#333">Modelo Anatômico</text>
</svg> 