<svg width="800" height="400" xmlns="http://www.w3.org/2000/svg">
  <rect width="800" height="400" fill="#f0f0f0"/>
  <rect x="50" y="100" width="300" height="200" rx="10" fill="#3498db"/>
  <polygon points="50,100 350,100 350,300 50,300" fill="#3498db" stroke="#2980b9" stroke-width="2"/>
  <polygon points="350,100 700,120 700,320 350,300" fill="#2980b9" stroke="#2980b9" stroke-width="2"/>
  <polygon points="50,100 350,100 700,120 400,120" fill="#2980b9" stroke="#2980b9" stroke-width="2"/>
  
  <!-- Impressora 3D -->
  <rect x="100" y="150" width="200" height="120" rx="5" fill="#34495e"/>
  <rect x="120" y="170" width="160" height="80" fill="#ecf0f1"/>
  <rect x="150" y="130" width="100" height="20" fill="#7f8c8d"/>
  <rect x="190" y="80" width="20" height="50" fill="#7f8c8d"/>
  <circle cx="200" cy="60" r="10" fill="#e74c3c"/>
  <rect x="185" y="250" width="30" height="20" fill="#e74c3c"/>
  
  <!-- Peça sendo impressa -->
  <rect x="450" y="150" width="200" height="120" rx="10" fill="#ecf0f1"/>
  <circle cx="550" cy="210" r="50" fill="#3498db"/>
  <rect x="525" y="170" width="50" height="30" rx="5" fill="#e74c3c"/>
  <polygon points="525,200 575,200 555,240" fill="#2ecc71"/>
  
  <text x="400" y="350" font-family="Arial" font-size="24" text-anchor="middle" fill="#333">Serviços de Impressão 3D</text>
</svg> 